<?xml version="1.0" encoding="utf-8"?>
<!-- Generator: Adobe Illustrator 22.1.0, SVG Export Plug-In . SVG Version: 6.00 Build 0)  -->
<svg version="1.1" id="Layer_1" xmlns="http://www.w3.org/2000/svg" xmlns:xlink="http://www.w3.org/1999/xlink" x="0px" y="0px"
	 viewBox="0 0 91 92" style="enable-background:new 0 0 91 92;" xml:space="preserve">
<style type="text/css">
	.st0{fill:#334968;}
	.st1{fill:#334968;fill-opacity:0.4;}
	.st2{fill:#FFFFFF;}
</style>
<path id="path-1" class="st0" d="M20.5,22.3c5.9-9.6,14.4-13,25.1-11.1c7.9,1.4,15.4,4.1,22.3,8.2c9.7,5.6,13.7,14,11.9,25.2
	c-1.4,8.7-4.4,16.9-8.9,24.4C65,78.5,56.1,82.4,45.4,80.5c-7.9-1.4-15.4-4.1-22.3-8.2C13.4,66.7,9.5,58,11.3,46.8
	C12.7,38.1,15.8,29.9,20.5,22.3L20.5,22.3z"/>
<path id="path-1_1_" class="st1" d="M17.9,11.4C27,0.3,38.4-2.5,51.6,1.9c9.7,3.2,18.7,7.9,26.7,14.3c11.2,8.8,14.8,20.1,10.5,34
	c-3.3,10.7-8.5,20.5-15.6,29.3c-9.1,11-21.1,14.3-34.2,10c-9.7-3.2-18.7-7.9-26.7-14.3C1.1,66.3-2.4,54.6,2,40.8
	C5.2,29.9,10.7,20.2,17.9,11.4L17.9,11.4z"/>
<path id="Shape" class="st2" d="M34,39.5l2.8-1c0,0,2.2,4.2,6.4,8.4c4.2,4.2,9,6.4,9,6.4l-1.2,2.8c0,0-5.3-3-9.7-7.3
	C36.9,44.5,34,39.5,34,39.5z M65.2,52.6c1.9,0.9,2.3,3.4,0.8,4.9l-6.4,6.3c-0.9,0.9-2.3,1.4-3.6,1.2c-0.4-0.1-0.9-0.1-1.3-0.2
	c-3.9-0.5-11.6-2.5-19-9.7c-7.8-7.7-10-16.3-10.7-20.2c-0.2-1.3,0.2-2.6,1.2-3.5l6.4-6.3c1.5-1.5,4-1.1,5,0.8l4.9,9.8L40,36.7
	l-4.6-9.1c-0.3-0.5-1-0.6-1.4-0.2l-5.2,5.2c-0.5,0.5-0.8,1.3-0.8,2c0.1,2.2,0.8,6.5,4,11.7c1.3,2,3.1,4.1,5.4,6.3
	c7.9,7.7,15,9.2,18.4,9.4c0.5,0,0.8,0,1.1-0.1c0.3,0,0.7-0.1,1-0.3c0.2-0.1,0.3-0.2,0.5-0.4l5.2-5.2c0.4-0.4,0.3-1.1-0.2-1.4
	L54,50.1l1.2-2.4L65.2,52.6z"/>
</svg>
